<svg xmlns="http://www.w3.org/2000/svg" version="1.1" width="16" height="18" viewBox="0 0 16 18"><defs><style>.a{fill:#53565e;}</style></defs><path class="a" d="M20,8H17.19a5.985,5.985,0,0,0-1.82-1.96L17,4.41,15.59,3,13.42,5.17A6.065,6.065,0,0,0,12,5a5.918,5.918,0,0,0-1.41.17L8.41,3,7,4.41,8.62,6.04A6.062,6.062,0,0,0,6.81,8H4v2H6.09A6.638,6.638,0,0,0,6,11v1H4v2H6v1a6.638,6.638,0,0,0,.09,1H4v2H6.81a5.989,5.989,0,0,0,10.38,0H20V16H17.91A6.638,6.638,0,0,0,18,15V14h2V12H18V11a6.638,6.638,0,0,0-.09-1H20Zm-6,8H10V14h4Zm0-4H10V10h4Z" transform="translate(-4 -3)"/></svg>