<?xml version="1.0" encoding="utf-8"?>
<!-- Generator: Adobe Illustrator 24.0.0, SVG Export Plug-In . SVG Version: 6.00 Build 0)  -->
<svg version="1.1" xmlns="http://www.w3.org/2000/svg" xmlns:xlink="http://www.w3.org/1999/xlink" x="0px" y="0px"
	 viewBox="0 0 1000 800" style="enable-background:new 0 0 1000 800;" xml:space="preserve">
<style type="text/css">
	.st0{display:none;}
	.st1{display:inline;fill:#FFFFFF;}
	.st2{display:inline;}
	.st3{fill:#F7F7F7;}
	.st4{fill:#B97262;}
	.st5{fill:#96BFEE;}
	.st6{fill:#587BC9;}
	.st7{fill:#3B455A;}
	.st8{fill:#FFFFEE;}
	.st9{fill:#7DB5DB;}
	.st10{fill:#D7E8F4;}
	.st11{fill:#292949;}
	.st12{fill:#305399;}
	.st13{fill:#EFBFA5;}
	.st14{fill:#ECE9DE;}
	.st15{fill:#FFFFEF;}
</style>
<g id="background" class="st0">
	<rect class="st1" width="1000" height="800"/>
</g>
<g id="shadow" class="st0">
	<g class="st2">
		<path class="st3" d="M462.51,670.63c-23.02,0.07-46.05,0.66-69.03,3.37c-8.67,1.02-17.15,3.27-25.84,4.17
			c-17.35,1.81-34.39,5.19-51.8,6.74c-14.02,1.25-28.1,1.99-42.08,3.58c-13.11,1.49-27.62,1.15-40.62-1.32
			c-9.63-1.82-19.3-2.85-28.77-5.78c-10.59-3.28-22.09-5.62-33.13-5.54c-15.73,0.12-31.06,0.13-46.11,5.92
			c-5.29,2.03-11.76,5.37-15.77,9.64c-9.19,9.76-10.43,34.11-1.26,44.24c15.45,17.04,48.43,23.72,70.09,24.04
			c23.73,0.35,46.79-1.52,70.56-2.62c22.09-1.02,44.12-2.47,66.24-2.42c45.18,0.1,90.37,0,135.48-3.2
			c42.37-3,84.86-1.97,127.32-1.97c43.55,0,86.8,0.36,130.04,6.49c18.84,2.67,38.03,3.61,56.96,5.48
			c16.96,1.68,33.25-0.03,50.14-1.58c14.18-1.3,28.27-5.16,41.15-11.68c10.2-5.16,28.38-21.2,31.51-33.53
			c8.77-34.55-123.56-33.72-143.88-33.64c-22.73,0.09-45.64,0.88-68.35-0.04c-9.55-0.39-18.97-2.36-28.29-4.53
			c-9.29-2.16-18.64-1.61-28.06-2.52c-39.27-3.78-78.64-3.23-118.04-3.23C488.16,670.71,475.33,670.59,462.51,670.63z"/>
	</g>
</g>
<g id="object">
	<g>
		<g>
			<g>
				<polygon class="st4" points="277.5,348.64 275.74,336.73 280.79,335.76 283.81,343.64 285.98,342.07 286.25,352.44 
					281.13,354.17 				"/>
			</g>
			<g>
				<polygon class="st5" points="353.98,410.5 308.44,398.65 287.34,348.9 277.36,352.84 289.25,417.1 341.72,444.13 				"/>
			</g>
		</g>
		<polygon class="st6" points="744.57,405.32 701.42,436.82 663.78,420.55 658.26,430.71 686.76,450.12 702.74,456.09 
			744.57,435.95 		"/>
		<g>
			<path class="st7" d="M774.3,208.47l132.17,10.99c12.23,1.02,21.33,11.76,20.31,23.99l-7.08,85.2
				c-1.01,12.18-11.68,21.26-23.87,20.32l-21.25-1.64l-27.04,31.96c-0.79,0.93-2.31,0.32-2.23-0.9l2.27-33.3l-84.09-7.19
				c-12.21-1.04-21.27-11.77-20.26-23.99l7.07-85.12C751.32,216.55,762.06,207.46,774.3,208.47z"/>
			<g>
				
					<rect x="825.83" y="188.11" transform="matrix(0.085 -0.9964 0.9964 0.085 517.451 1045.6323)" class="st8" width="4.41" height="105.95"/>
				
					<rect x="833.14" y="212.3" transform="matrix(0.085 -0.9964 0.9964 0.085 489.8581 1084.4)" class="st8" width="4.41" height="126.37"/>
				
					<rect x="830.28" y="245.84" transform="matrix(0.085 -0.9964 0.9964 0.085 453.8219 1112.2384)" class="st8" width="4.41" height="126.37"/>
			</g>
		</g>
		<g>
			<g>
				<polygon class="st9" points="676.26,554.15 678.79,612.9 671.36,712.78 660.25,713.57 646.75,622.85 628.08,546.08 				"/>
				<polygon class="st7" points="660.65,718.25 673.09,723.41 678.67,716.97 672.24,711.39 660.22,712.25 				"/>
			</g>
			<g>
				<polygon class="st9" points="597.61,533.36 595.17,577.77 602.4,709.8 613.53,710.36 630.2,623.76 644.91,528.8 				"/>
				<polygon class="st7" points="613.23,715.04 600.9,720.46 595.19,714.14 601.5,708.43 613.53,709.03 				"/>
			</g>
			<g>
				<path class="st10" d="M662.29,402.55l-34.71-3.72c0,0-19.31,2.06-32.41,47.93c-7.29,25.52-9.51,65.72-10.04,96.36
					c0.82,4.37,5.58,23.52,25.72,20.27c34.59-5.58,52.99-11.16,68.06-8.37c12.83,2.79,11.75-14.88,10.34-28.36l-5.11-41.71
					L662.29,402.55z"/>
			</g>
			<g>
				<path class="st4" d="M655.59,359.34c-8.75-1.93-17.76-3.66-26.51-1.92c-1.92,0.38-3.98,1.05-5.02,2.7
					c-0.4,0.64-0.62,1.38-0.81,2.11c-2.21,8.22-5.01,20.4,0.39,27.97c1.03,1.44,2.42,2.59,3.91,3.52c1.99,1.24,4.19,2.09,6.47,2.54
					c-0.47,2.04-1.13,4.04-1.96,5.97c2,3.02,11.35,3.38,13.07,0.49c0.1-2.51,0.19-5.01,0.29-7.52c1.14-0.46,2.24-1.02,3.27-1.7
					c3.99-2.63,6.62-6.62,8.15-11.09c1.66-4.86,4.01-9.48,5.53-14.44c0.55-1.81,0.99-3.87,0.04-5.5c-1.01-1.74-3.19-2.33-5.16-2.77
					C656.7,359.58,656.14,359.46,655.59,359.34z"/>
				<path class="st11" d="M626.46,364.04c4.32-2.78,10.81-3.98,14.88-3.68c12.29,0.89,16.8,9.92,17.45,21.22
					c3.39-4.3,9.74-9.72,10.13-15.26c0.31-4.53-0.31-10.72-2.85-14.63c-2.38-3.66-8.45-5.68-12.07-7.8c-3.41-2-6.81-4-10.22-6
					c-0.71-0.42-1.44-0.84-2.25-0.98c-0.96-0.17-1.93,0.08-2.87,0.32c-8.05,2.08-16.1,4.16-24.16,6.24
					c-1.55,0.4-3.31,0.98-3.88,2.48c-0.35,0.91-0.14,1.92,0.06,2.87c0.91,4.18,2.67,8.45,3.1,12.69c0.49,2.46,1.96,15.07,6.31,13.61
					c1.28-2.09,1.47-4.67,2.47-6.91C623.31,366.55,624.71,365.16,626.46,364.04z"/>
			</g>
			<polygon class="st10" points="627.58,398.83 614.75,402.73 567.89,451.82 565.1,468 587.5,504.99 593.55,491.43 584.06,464.1 
				599.13,453.5 619.21,408.31 			"/>
		</g>
		<g>
			<polygon class="st12" points="549.51,702.54 550.42,709.59 537.23,718.45 529.28,712.31 535.42,704.35 548.61,695.5 			"/>
			<g>
				<polygon class="st11" points="549.96,700.18 539.79,610.3 552.03,509.68 549.27,488.28 494.62,486.21 492.64,521.04 
					501.82,610.44 536.34,704.77 				"/>
			</g>
			<polygon class="st12" points="489.49,386.76 461.99,394.25 430.2,450.59 445.26,464.54 466.45,439.44 			"/>
			<g>
				<polygon class="st11" points="454.51,496.28 454.37,586.97 472.62,703.73 485.76,703.6 492.98,595.63 509.89,487.56 				"/>
				<polygon class="st12" points="485.74,709.14 471.6,716.39 464.43,709.35 471.46,702.18 485.67,702.04 				"/>
			</g>
			<g>
				<path class="st12" d="M557.68,527.12c-0.13-3.93-0.34-7.21-0.38-8.38c-0.28-10.54-1.22-21.06-2.54-31.53
					c-1.18-9.38-2.68-32.67-4.28-41.99c-1.33-7.7-5.94-26.91-9.28-34.05c-8.3-17.76-5.74-19.4-42.19-24.67
					c-15.98-2.31-19.75,7.65-32.82,19.1c-1.29,1.13-1.22,7.85-1.52,9.63c-0.53,3.14-1.09,6.27-1.74,9.38
					c-0.51,2.45-1.07,4.89-1.7,7.32l0,0c0,0-10.97,49.9-18.22,60.5c-7.25,10.6-22.23,25.42,2.83,34.46
					c4.44,1.44,8.91,2.8,13.53,3.53c0,0,20.5-2.28,31.04-2.2c9.71,0.07,19.46,1.05,29,2.7c6.38,1.07,12.89,2.62,18.6,5.6
					c5.45,2.85,9.38,7.03,14.9,9.98c0.52,0.28,1.1,0.57,1.69,0.49C557.8,546.55,557.95,535.4,557.68,527.12z"/>
			</g>
			<path class="st13" d="M533.23,296.43c0,0-5.22-2.59-5.2-3.26c0.02-0.67,0.9-10.12,0.9-10.12l3.42-1.96l1.44-4.03
				c0,0-3.91-6.85-3.19-8.86c0.72-2.01,5.94,6.89,5.94,6.89l1.91,5.45l0.49,8.8L533.23,296.43z"/>
			<polygon class="st13" points="477.56,431.39 488.25,423.25 484.96,418.53 476.41,422.48 475.89,419.53 467.6,427.62 
				470.35,432.98 			"/>
			<g>
				<polygon class="st12" points="476.2,434.27 467.63,423.07 438.12,440.86 445.4,464.63 				"/>
			</g>
			<g>
				<path class="st13" d="M498.97,391.5c1.84,0.91,6.18,1.23,10.71-0.54c0.91-0.36,1.53-1.24,1.52-2.22
					c-0.04-2.75-0.26-5.5-0.66-8.22c3.4-1.19,7.32-2.99,7.91-6.54c0.19-1.12-0.01-2.26-0.2-3.38c-0.8-4.62-1.6-9.24-2.4-13.86
					c-0.28-1.6-0.57-3.24-1.44-4.61c-1.52-2.4-4.48-3.45-7.29-3.94c-7.15-1.24-14.95,0.31-20.5,4.99c-1.48,1.25-2.81,2.75-3.46,4.57
					c-1,2.81-0.25,5.9,0.5,8.78c0.7,2.66,1.4,5.32,2.1,7.98c0.8,3.06,1.96,6.54,4.91,7.69c1.57,0.61,3.41,0.43,4.83,1.33
					C498.01,385.13,497.67,388.84,498.97,391.5z"/>
				<path class="st7" d="M457.68,345.43c-0.7-1.15-1.46-2.27-2.31-3.31c-1.83-2.26-4.1-4.2-5.57-6.71c-1.48-2.51-2-5.91-0.22-8.23
					c1.14-1.49,3-2.24,4.8-2.77c5.94-1.75,12.35-1.87,18.35-0.34c5.72,1.46,10.83,3.86,16.59,1.72c5.41-2.02,9.31-1.2,14.96,0.82
					c6.12,2.18,14.32,2.7,19.86,5.78c2.31,1.29,4.16,3.3,5.59,5.52c4.98,7.69,5.01,18.3,0.07,26.02c-1.11,1.73-2.43,3.31-3.83,4.83
					c-2.88,3.13-6.34,6.99-10.3,8.15c-0.09-3.55,3.14-14.74,0.41-17.65c-4.33-4.62-14.11-3.01-19.48-1.87
					c-5.85,1.24-11.07,5.39-16.88,6.27c-4.18,0.64-9.51-1.41-13.06-3.57C462.28,357.41,460.24,349.64,457.68,345.43z"/>
			</g>
			<polygon class="st12" points="519.21,389.94 547.32,375.16 528.03,296.43 541.32,289.25 574.88,375.16 538.95,418.53 			"/>
		</g>
		<g>
			<g>
				<g>
					<polygon class="st7" points="312.88,707.75 312.27,713.71 323.6,720.89 330.17,715.53 324.81,708.96 313.49,701.78 					"/>
					<polygon class="st12" points="312.44,525.74 310.6,543.86 326.78,624.84 312.45,705.76 324.05,709.33 361.53,613.11 
						363.59,583.7 358.51,522.77 					"/>
				</g>
				<g>
					<polygon class="st12" points="400.31,531.91 400.68,608.46 385.6,707.05 374.5,706.98 368.11,615.87 353.54,524.7 					"/>
					<polygon class="st7" points="374.54,711.65 386.49,717.73 392.53,711.78 386.57,705.74 374.58,705.66 					"/>
				</g>
			</g>
			<g>
				<path class="st5" d="M409.66,520.68c-8-24.79-8.85-50.81-11.18-76.63c-0.69-7.62-1.42-15.4-4.59-22.36
					c-3.64-7.99-9.66-12.21-16.67-14.52c-8.93-2.93-19.46-2.76-28.74-3.33c-8.81-0.28-16.6,32.83-25.58,48.87
					c-5.5,9.83-11.18,18.53-14.89,29.26c-3.56,10.3-6.99,20.77-9.06,31.48c-3.13,16.17-11.14,27.47-3.49,32.97
					c0.7,0.23,1.38,0.46,2.02,0.69c12.54,4.49,25.52,7.82,38.74,9.56c11.72,1.55,23.63,1.83,35.4,0.67
					c16.11-1.59,31.73-3.86,45.93-12.27C414.91,536.94,412.28,528.81,409.66,520.68z"/>
			</g>
			<g>
				<path class="st4" d="M344.16,379.2c5.02-15.14,27.12-20.42,32.26-2.82c1.54,5.29,2.47,10.9,1.42,16.31
					c-1.05,5.41-4.36,10.6-9.4,12.82c-0.03,0.01-0.06,0.02-0.09,0.04c0.2,1.4,0.39,2.81,0.59,4.21c0.04,0.3,0.08,0.63-0.09,0.89
					c-0.19,0.29-0.58,0.36-0.92,0.41c-1.68,0.25-3.35,0.5-5.03,0.75c-0.83,0.12-1.7,0.25-2.5-0.01c-1.75-0.56-2.48-2.66-2.56-4.5
					c-0.02-0.44-0.01-0.88-0.01-1.33C347.93,402.58,340.88,389.1,344.16,379.2z"/>
				<g>
					<path class="st11" d="M371.09,353.34c4.05-0.6,7.49,3.32,11.23,5.38c3.11,1.71,6.63,2.17,9.85,3.59
						c3.22,1.42,6.38,4.39,6.45,8.1c3.26-1.7,6.8-3.44,10.45-2.73c3.66,0.7,7.05,5.07,5.59,8.67c-1.3,3.22-5.51,3.98-6.91,7.15
						c-2.21,5.02,3.77,12.81-0.31,16.14c-0.98,0.8-2.32,0.99-3.28,1.82c-1.2,1.02-1.58,2.78-2.12,4.34
						c-2.42,7.08-9.55,11.7-16.6,10.76c-4.38-2.05-7.88-6.3-9.44-11.15c-1.89-5.85,1.24-7.9,1.77-13.39
						c0.58-6.01-1.33-12.36-5.11-17.03c-2.46-3.03-5.98-5.65-9.7-6.01c-1.51-0.14-1.04,1.12-2.74-0.05c-0.73-0.5-1.73-2.4-1.93-3.31
						C362.36,362.33,365.76,354.13,371.09,353.34z"/>
					<path class="st11" d="M327.32,361.13c-2.09,0.58-4.35,0.5-6.34,1.37c-2.99,1.31-2.81,4.41-3.65,7.1
						c-0.94,2.98-2.3,6.99-4.26,9.3c-1.42,1.67-3.4,2.62-5.13,3.91c-1.73,1.29-3.31,3.19-3.28,5.52c0.03,2.2,1.52,4.18,1.73,6.38
						c0.26,3.28-0.3,4.96,0.71,8.31c0.52,1.73,1.11,3.56,2.4,4.74c1.71,1.55,4.15,1.52,6.29,1.17c2.14-0.36,4.35-0.95,6.46-0.24
						c4.58,1.54,3.72,6.17,4.94,10.05c1.85,5.9,8.7,9.35,13.94,7.25c4.44-1.78,7.01-6.94,6.81-12.02c-0.1-2.55-1.11-4.92-1.19-7.47
						c-0.07-2.46,1.32-5.87-0.91-7.82c-0.54-0.48-1.24-0.73-1.73-1.27c-0.39-0.44-0.61-1.03-0.75-1.61
						c-0.47-2.03-0.03-4.25,1.17-5.81c0.86-1.12,2.1-1.94,2.62-3.29c0.6-1.55,0.13-3.35,0.02-5.06c-0.25-4.13,2.01-8.18,5.45-9.78
						c2.27-1.05,4.31-1.67,6.29-3.27c0.3-0.24,4.81-4.23,4.93-3.37c-0.2-1.5-1.08-2.81-1.96-4.01c-1.46-1.98-3.08-3.9-5.13-5.09
						c-6.64-3.83-6.96,5.07-12.29,3.9c-1.29-0.28-2.25-1.46-3.41-2.16c-2.19-1.33-4.87-0.85-7.1,0.14
						C331.71,359,329.67,360.47,327.32,361.13z"/>
				</g>
			</g>
		</g>
		<g>
			<g>
				<polygon class="st12" points="762.7,559.86 811.45,543.5 799.09,627.73 803.05,706.48 803.05,706.48 803.05,706.48 
					803.05,706.48 794.18,706.48 794.18,706.48 794.18,706.48 773.51,636.55 764.24,567.03 764.24,567.03 				"/>
				<polygon class="st7" points="793.65,705.44 803.53,705.47 805.81,713.87 805.56,713.94 805.62,713.95 789.03,723.15 
					781.25,723.79 780.51,714.89 782.65,713.42 				"/>
			</g>
			<g>
				<polygon class="st12" points="724.78,560.37 735.46,710.36 743.86,711.39 756.48,628.33 775.34,551 				"/>
				<polygon class="st7" points="735.04,708.85 722.19,715.66 723.2,721.66 745.9,718.9 744.82,710.26 				"/>
			</g>
			<g>
				<path class="st6" d="M824.75,584.19c1.02-24.53-20.89-102.54-20.89-102.54l0,0c-2.32-7.33-4.08-14.79-5.14-22.26
					c-0.75-5.32-16.7-65.8-15.64-65.88c-10.98,0.8-32.16-1.8-40.3,6.01c-0.23,0.22-0.45,0.45-0.66,0.69
					c-6.34,7.23-9.64,21.88-12.64,30.9c-3.94,11.84-6.97,23.99-9.03,36.3c-1.81,10.76-2.88,21.63-3.64,32.51
					c-0.65,9.35-0.13,18.66-0.45,27.86c-0.35,10.19-3.41,21.23-5.69,31.14c-2.3,9.98-5.21,19.84-9.24,29.27
					c10.91,4.83,23.05,6.13,34.98,6.18c11.93,0.05,23.84-1.1,35.76-0.92c10.08,0.15,20.29,1.25,30.17-0.77
					C810.19,591.07,817.44,587.57,824.75,584.19L824.75,584.19z"/>
			</g>
			<g>
				<path class="st7" d="M745.47,367.86c-5.01,2.48-10.24,8.86-9.92,14.81c0.16,2.86,1.74,5.09,1.78,8.16
					c0.11,6.05,9.29,12.39,3.67,18.23c-2.89,3-7.4,3.59-11.54,4c-0.5,0.05-1.03,0.1-1.49-0.1c-0.77-0.32-1.14-1.23-1.12-2.06
					c0.02-0.83,0.34-1.62,0.59-2.41c2.64-8.28-1.34-17.95-1.81-26.39c-0.47-8.42,1.53-17.52,8.43-23.01
					c4.63,1.41,8.08,3.37,10.36,7.64L745.47,367.86z"/>
				<path class="st13" d="M748.58,403.81c-5.71-0.72-10.56-4.93-13.23-10.04c-2.66-5.1-3.4-11-3.43-16.76
					c-0.09-19.15,23.61-20.45,33.14-6.77C773.37,382.16,765.19,405.9,748.58,403.81z"/>
				<path class="st7" d="M777.28,406.14c-2.94-0.84-5.86-1.76-8.13-4.25c-3.68-4.02-4.78-11.58-6.51-16.59
					c-1.83-5.28-3.99-10.98-8.78-13.84c-3.13-1.87-6.28-1.72-9.72-1.11c-2.35,0.42-2.27,1.32-4.49,0.46
					c-1.71-0.67-3.57-3.29-4.25-4.9c-1.15-2.72-0.59-5.94,0.85-8.52c2.22-3.97,5.31-6.33,9.64-7.28
					c15.2-3.33,28.43,3.47,35.65,17.54c3.47,6.76,3.51,15.04,7.07,21.5c2.2,3.99,5.48,6.29,7.48,10.61
					c5.18,11.2,14.63,24.98,16.52,37.24c0.07,0.45,0.11,0.96-0.16,1.33c-0.57,0.74-1.74,0.2-2.48-0.37
					c-4.29-3.38-8.58-6.75-12.87-10.13c-1.68-1.33-3.39-2.67-4.65-4.41c-3.12-4.33-3.2-10.71-7.39-14.01
					C782.75,407.62,780,406.92,777.28,406.14z"/>
			</g>
			<g>
				<g>
					<path class="st13" d="M848.44,382.94c2.87,0.53,10.35-1.47,12.06-4.1c3.96-6.09-5.44-4.22-8.84-4.3
						c0.39-1.18,0.8-2.31,0.95-3.52c0.14-1.11-9.96,1.77-10.93,2.83c-2.33,2.54-1.27,4.45-1.06,7.66
						C843.24,381.93,845.84,382.45,848.44,382.94z"/>
				</g>
				<polygon class="st6" points="769.06,444.16 824.22,434.99 849.62,383.48 839.52,375.16 812.65,410.83 784.56,409.63 
					758.57,410.76 				"/>
			</g>
		</g>
		<g>
			<g>
				<g>
					<polygon class="st13" points="215.47,556.67 167.2,538.92 177.15,623.47 171.39,696.42 171.23,696.9 171.35,696.92 
						170.96,701.78 179.47,703.32 179.47,703.32 179.47,703.32 202.47,633.02 213.72,563.8 213.72,563.8 					"/>
					<polygon class="st12" points="180.36,701.31 170.49,701.06 167.96,709.39 168.21,709.46 168.15,709.47 184.47,719.14 
						192.24,720.01 193.22,711.14 191.13,709.6 					"/>
				</g>
				<g>
					<polygon class="st13" points="248.34,558.13 233.42,707.28 225.04,709.33 214.71,625.16 198.07,547.31 					"/>
					<polygon class="st12" points="233.83,706.25 246.49,713.43 245.3,719.4 222.69,715.99 224.02,707.39 					"/>
				</g>
				<g>
					<g>
						<path class="st6" d="M270.97,594.48c3.05-2.12,3.12-5.81,3.11-9.51c-0.01-6.94-1.26-14.04-2.85-20.79
							c-3.03-12.66-6.47-27.91-7.98-44.31c-3.9-42.4-17.29-70.85-17.29-70.85l-4.32-11.52c-0.86-1.5-1.75-2.98-2.68-4.44
							c-5.4-8.47-14.76-22.86-24.78-25.21c-0.21-0.05-0.42-0.1-0.63-0.14c-10.53-2.31-24.03-1.24-33.55,3.88
							c-1.81,0.97-3.41,2.27-5.01,3.55c-4.66,3.76-8.45,5.79-10.46,11.51c-1.74,4.97-2.15,10.39-3.11,15.54
							c-1.95,10.46-3.12,21.05-4.67,31.57c-2.92,19.73-5.4,39.53-8.53,59.23c-1.61,10.14-3.23,20.3-3.99,30.54
							c-0.67,9.06-8.84,18.26-13.44,26.37c-1.6,2.82,21.35,10.14,23.41,10.62c9.52,2.22,19.65,1.65,29.46,1.69
							c21.51,0.1,43.02-0.57,64.48-1.99c7.13-0.47,15.92-1.83,22.25-5.38C270.59,594.73,270.78,594.61,270.97,594.48z"/>
					</g>
					<path class="st10" d="M201.74,406.55c0,0-12.11-3.27-13.79,24.06c-1.67,27.33-4.46,96.51-8.37,115.47
						c-3.9,18.97-9.76,56.17-9.76,56.17l37.1,1.29l42.4-3.35c0,0-14.5-26.78-16.74-45.74c-2.23-18.97,1.67-90.37-7.81-117.15
						C215.28,410.53,213.29,407.03,201.74,406.55z"/>
					<g>
						<polygon class="st6" points="256.56,467.43 259.35,470.78 269.39,456.83 229.23,412.21 214.17,407.74 221.42,427.27 						"/>
					</g>
					<polygon class="st13" points="222.99,455.89 214.18,449.17 216.88,445.28 223.94,448.54 224.37,446.1 231.21,452.77 
						228.94,457.2 					"/>
					<g>
						<polygon class="st6" points="257.52,454.17 257.13,455.04 229.65,449.74 225.6,458.75 259.35,470.78 						"/>
					</g>
				</g>
				<g>
					<g>
						<path class="st7" d="M218.63,384.9c1.83,5.5-0.82,11.37-3.15,16.39c-2.07,4.45-2.78,7.38,2.46,8.58
							c2.95,0.68,8.2,1.94,10.79-0.32c1.96-1.71,0.86-7-0.1-9.11c-0.73-1.61-2.66-2.42-3.34-4.04c-0.28-0.67-0.32-1.41-0.33-2.14
							c-0.04-2.97,0.37-5.94,1.21-8.79c0.57-1.93,1.35-3.83,1.52-5.84c0.25-2.91-1.81-6.3-2.89-8.98
							c-2.01-4.98-9.02-11.65-14.88-7.75c-1.34,0.89-2.11,2.39-2.76,3.86c-0.39,0.88-0.76,1.79-0.77,2.75
							c-0.05,3.82,3.44,4.47,5.85,6.28C215.21,378.03,217.46,381.38,218.63,384.9z"/>
						<path class="st13" d="M207.47,406.37c5.09-1.2,9.07-5.47,10.98-10.34c1.91-4.86,2.01-10.26,1.48-15.46
							c-1.76-17.3-23.29-16.19-30.57-2.93C183.01,389.2,192.68,409.86,207.47,406.37z"/>
					</g>
					<path class="st13" d="M207.47,404.51c-0.09,1.97-0.17,3.94-0.26,5.91c-0.01,0.29-0.04,0.61-0.24,0.81
						c-0.23,0.24-0.6,0.24-0.93,0.23c-1.61-0.06-3.21-0.11-4.82-0.17c-0.8-0.03-1.62-0.06-2.33-0.44c-1.54-0.82-1.85-2.91-1.61-4.63
						c0.25-1.73,0.86-3.47,0.5-5.17c3.32,1.63,6.47-2.06,9.78-0.42L207.47,404.51z"/>
				</g>
				<path class="st7" d="M200.53,350.58c-5.65,1.92-9.28,7.64-14.79,9.92c-3.16,1.31-6.91,1.48-9.49,3.73
					c-5.78,5.04-1.14,15.62-5.89,21.64c-0.99,1.25-2.32,2.2-3.31,3.45c-2.14,2.69-2.42,6.37-2.61,9.81
					c-0.04,0.77-0.05,1.61,0.08,2.39c0.74,7.93,12.26,7.43,16.84,6.92c5.02-0.56,3.35-3.35,3.35-3.35l-0.18-0.22
					c-0.48-3.22,0.84-6.66,3.37-8.71c0.94-0.76,2.05-1.37,2.71-2.38c1.49-2.27,0.07-5.28,0.29-7.98
					c0.88-10.89,19.16-8.56,24.32-16.32C221.54,359.97,211.2,346.95,200.53,350.58z"/>
			</g>
		</g>
		<g>
			<path class="st12" d="M260.33,200.06l-157.46,12.79c-0.61,0.05-1.05,0.62-1,1.26l9.88,117.29c0.05,0.65,0.59,1.14,1.2,1.09
				l35.59-2.89l27.26,31.66c0.8,0.93,2.33,0.31,2.25-0.89l-2.27-32.98l61.56-5c18.87-1.53,32.8-19.14,31.1-39.34l-6.9-81.9
				C261.47,200.5,260.93,200.01,260.33,200.06z"/>
			<g>
				<polygon class="st8" points="242.79,225.23 144.71,233.2 144.37,229.19 242.45,221.22 				"/>
				<polygon class="st8" points="245.37,255.83 128.38,265.33 128.05,261.32 245.03,251.82 				"/>
				<polygon class="st8" points="247.95,286.43 130.96,295.93 130.62,291.91 247.61,282.41 				"/>
			</g>
		</g>
		<g>
			<g>
				<path class="st12" d="M577.79,240.31c0-33.97,39.01-61.51,87.14-61.51c48.12,0,87.14,27.54,87.14,61.51
					s-39.01,61.51-87.14,61.51c-1.91,0-3.81-0.05-5.69-0.13c-0.85-0.04-1.52,0.73-1.37,1.57l6.94,37.87c0.24,1.32-1.4,2.13-2.3,1.13
					l-45.34-50.38c-0.12-0.13-0.26-0.24-0.42-0.31C593.27,280.55,577.79,261.71,577.79,240.31z"/>
				<g>
					<path class="st14" d="M702,247.84c-5.03,0-5.03-7.81,0-7.81C707.02,240.03,707.03,247.84,702,247.84z"/>
					<path class="st14" d="M666.85,247.84c-5.03,0-5.03-7.81,0-7.81C671.87,240.03,671.88,247.84,666.85,247.84z"/>
					<path class="st14" d="M622.91,247.84c-5.03,0-5.03-7.81,0-7.81C627.94,240.03,627.95,247.84,622.91,247.84z"/>
				</g>
			</g>
		</g>
		<g>
			<g>
				<polygon class="st13" points="141.03,331.32 144.33,319.75 149.34,320.94 148.84,329.37 151.47,328.84 147.43,338.4 
					142.06,337.86 				"/>
			</g>
			<g>
				<polygon class="st6" points="185.21,419.22 148.6,389.64 149.88,335.62 139.17,335.09 123.51,398.54 160.17,444.79 				"/>
			</g>
		</g>
		<polygon class="st10" points="654.93,405.52 678.79,379.74 673.17,309.88 683.65,305.27 697.91,376.14 693.55,393.8 666.8,430.71 
					"/>
		<polygon class="st4" points="683.65,305.27 683.65,289.25 676.32,284.97 672.8,291.47 672.8,297.99 669,299.56 673.17,309.88 		
			"/>
		<g>
			<g>
				<path class="st7" d="M430.96,154.21l127.54-0.24c11.81-0.02,21.39,9.53,21.42,21.33l0.16,82.21
					c0.02,11.76-9.45,21.33-21.21,21.42l-20.5,0.16l-23.3,32.83c-0.68,0.96-2.19,0.49-2.21-0.68l-0.54-32.09l-81.17-0.03
					c-11.79-0.01-21.34-9.55-21.37-21.34l-0.16-82.14C409.6,163.82,419.15,154.23,430.96,154.21z"/>
				<g>
					<rect x="434.16" y="178.95" class="st15" width="101.89" height="4.25"/>
					<rect x="434.15" y="211.33" class="st15" width="121.52" height="4.25"/>
					<rect x="434.15" y="243.7" class="st15" width="121.52" height="4.25"/>
				</g>
			</g>
		</g>
		<g>
			<g>
				<path class="st9" d="M428.41,265.03c-0.27-16.27-13.59-29.26-29.82-29.17c0.01-0.51,0.02-1.02,0.01-1.54
					c-0.33-19.87-16.7-35.72-36.58-35.39c-10.81,0.18-20.43,5.11-26.9,12.77c-6.21-6.85-15.23-11.1-25.2-10.93
					c-17.75,0.29-32.03,14.43-32.7,31.96c-0.75-0.04-1.51-0.07-2.28-0.06c-16.38,0.27-29.45,13.77-29.18,30.15
					c0.22,13.18,9,24.2,20.95,27.87c-1.42,3.49-2.18,7.31-2.12,11.32c0.26,15.86,13.33,28.5,29.18,28.23
					c1.22-0.02,2.41-0.12,3.58-0.29l0.51,30.71c0.04,1.33,1.76,1.84,2.23,1.15l19.01-27.63c4.59,2.94,10.06,4.61,15.92,4.51
					c10.62-0.18,19.8-6.1,24.62-14.76c4.98,3,10.83,4.7,17.07,4.59c17.71-0.29,31.82-14.88,31.53-32.59
					c-0.01-0.77-0.06-1.53-0.13-2.29C420.1,289.68,428.63,278.3,428.41,265.03z"/>
				<g>
					<path class="st14" d="M371.92,269.11c-4.38,0.07-4.28,6.88,0.11,6.81C376.41,275.84,376.3,269.04,371.92,269.11z"/>
					<path class="st14" d="M341.28,269.61c-4.38,0.07-4.28,6.88,0.11,6.81C345.77,276.35,345.66,269.54,341.28,269.61z"/>
					<path class="st14" d="M302.98,270.25c-4.38,0.07-4.28,6.88,0.11,6.81C307.47,276.98,307.37,270.17,302.98,270.25z"/>
				</g>
			</g>
		</g>
		<g>
			<g>
				<polygon class="st4" points="398.79,322.07 392.16,312.02 387.74,314.67 390.76,322.55 388.09,322.84 394.81,330.74 
					399.77,328.61 				"/>
			</g>
			<g>
				<polygon class="st5" points="377.11,412 409.11,379.97 391.63,328.83 401.7,325.1 435.71,380.91 391.88,435.23 				"/>
			</g>
		</g>
	</g>
</g>
</svg>
