<svg xmlns="http://www.w3.org/2000/svg" version="1.1" width="190.601" height="158.078" viewBox="0 0 190.601 158.078"><defs><style>.a,.h,.j,.l,.m{fill:none;}.a,.b,.e,.f,.g,.h,.i,.l{stroke:#50251f;}.a,.b,.e,.f,.g,.h,.i,.j,.l,.m{stroke-linecap:round;stroke-linejoin:round;}.a,.b,.e{stroke-width:3px;}.b{fill:#e8b535;}.c{fill:#50251f;font-size:17px;font-family:SegoeUI, Segoe UI;letter-spacing:0.1em;}.d{letter-spacing:0.08em;}.e,.k{fill:#f6d993;}.f,.g,.i{fill:#f6f6f6;}.f{stroke-width:3.16px;}.g{stroke-width:2.811px;}.h,.i{stroke-width:2.83px;}.j{stroke:#a0c373;stroke-width:3.49px;}.l{stroke-width:5px;}.m{stroke:#f6d993;stroke-width:4px;}</style></defs><g transform="translate(1.5 2.18)"><line class="a" x2="187.601" transform="translate(0 134.237)"/><rect class="b" width="106.07" height="78.658" transform="translate(40.768 71.837)"/><text class="c" transform="translate(71.067 113.401)"><tspan x="0" y="0">V</tspan><tspan class="d" y="0">O</tspan><tspan y="0">TE</tspan></text><rect class="b" width="112.621" height="8.852" transform="translate(37.49 62.979)"/><path class="e" d="M87.429,67.61h90.6l11.009,29.939H76.42Z" transform="translate(-38.93 -34.57)"/><rect class="f" width="34.278" height="44.201" transform="matrix(0.845, 0.535, -0.535, 0.845, 96.395, 0)"/><rect class="g" width="7.729" height="7.729" transform="translate(97.026 6.533) rotate(32.25)"/><line class="h" x2="5.795" y2="3.668" transform="translate(106.186 15.686)"/><line class="h" x2="10.253" y2="6.495" transform="translate(104.494 18.359)"/><rect class="i" width="7.781" height="7.781" transform="matrix(0.845, 0.535, -0.535, 0.845, 90.715, 17.951)"/><line class="h" x2="10.253" y2="6.495" transform="translate(99.5 26.245)"/><line class="h" x2="10.258" y2="6.49" transform="translate(97.804 28.922)"/><rect class="g" width="7.729" height="7.729" transform="translate(83.82 27.624) rotate(32.25)"/><line class="h" x2="10.258" y2="6.495" transform="translate(92.81 36.808)"/><line class="h" x2="8.247" y2="5.219" transform="translate(91.118 39.486)"/><line class="j" x2="2.972" y2="13.241" transform="translate(90.438 16.702)"/><line class="j" y1="2.972" x2="13.241" transform="translate(85.304 21.836)"/><rect class="k" width="44.631" height="11.189" transform="translate(72.659 48.012)"/><line class="l" x2="46.978" transform="translate(70.312 48.012)"/><path class="m" d="M91.95,197.47v47.373h14.677" transform="translate(-46.689 -99.447)"/><line class="m" y1="6.005" transform="translate(45.261 86.724)"/><line class="m" x2="26.691" transform="translate(113.982 76.671)"/><line class="m" x2="4.869" transform="translate(103.403 76.671)"/><line class="a" x1="4.349" y2="11.82" transform="translate(36.144 43.053)"/><line class="a" x1="1.031" y2="2.807" transform="translate(41.999 36.148)"/><line class="a" y2="13.181" transform="translate(151.112 96.642)"/><line class="a" x1="29.434" transform="translate(89.597 154.398)"/><line class="a" x1="3.328" transform="translate(123.249 154.398)"/></g></svg>