<svg xmlns="http://www.w3.org/2000/svg" version="1.1" width="7.313" height="7.313" viewBox="0 0 7.313 7.313"><defs><style>.a{fill:#53565e;}</style></defs><path class="a" d="M10.245,8.911V9.43a.6.6,0,0,1-.174.424,1.155,1.155,0,0,1-.448.288,3.273,3.273,0,0,1-.562.155,3.125,3.125,0,0,1-.559.052,2.2,2.2,0,0,1-1.631-.662A2.249,2.249,0,0,1,6.217,8.04,2.213,2.213,0,0,1,8.479,5.778a3.36,3.36,0,0,1,.359.021,3.072,3.072,0,0,1,.443.086,2.271,2.271,0,0,1,.44.162.948.948,0,0,1,.329.269.612.612,0,0,1,.133.386v.519a.067.067,0,0,1-.076.076H9.545a.067.067,0,0,1-.076-.076V6.888q0-.2-.312-.321A1.853,1.853,0,0,0,8.5,6.45a1.447,1.447,0,0,0-1.088.436,1.558,1.558,0,0,0-.421,1.131A1.677,1.677,0,0,0,7.429,9.2a1.451,1.451,0,0,0,1.112.469A2.017,2.017,0,0,0,9.2,9.559q.333-.114.333-.314V8.911a.074.074,0,0,1,.021-.055.069.069,0,0,1,.05-.021h.567a.077.077,0,0,1,.052.021.07.07,0,0,1,.024.055ZM8.427,5.016a2.962,2.962,0,0,0-1.183.243A3.005,3.005,0,0,0,5.622,6.88a3,3,0,0,0,0,2.366,3.005,3.005,0,0,0,1.621,1.621,3,3,0,0,0,2.366,0,3.005,3.005,0,0,0,1.621-1.621,3,3,0,0,0,0-2.366A3.005,3.005,0,0,0,9.61,5.259a2.962,2.962,0,0,0-1.183-.243Zm3.657,3.047a3.577,3.577,0,0,1-.49,1.835,3.64,3.64,0,0,1-1.331,1.331,3.68,3.68,0,0,1-3.671,0A3.64,3.64,0,0,1,5.26,9.9a3.68,3.68,0,0,1,0-3.671A3.64,3.64,0,0,1,6.591,4.9a3.68,3.68,0,0,1,3.671,0,3.64,3.64,0,0,1,1.331,1.331A3.577,3.577,0,0,1,12.083,8.064Z" transform="translate(-4.77 -4.407)"/></svg>