<svg xmlns="http://www.w3.org/2000/svg" version="1.1" width="16.5" height="17.483" viewBox="0 0 16.5 17.483"><defs><style>.a{fill:#b0b0b0;opacity:0.94;}</style></defs><path class="a" d="M10,10.867H8.167v1.748H10Zm3.667,0H11.833v1.748h1.833Zm3.667,0H15.5v1.748h1.833Zm1.833-6.119H18.25V3H16.417V4.748H9.083V3H7.25V4.748H6.333A1.784,1.784,0,0,0,4.509,6.5L4.5,18.735a1.792,1.792,0,0,0,1.833,1.748H19.167A1.8,1.8,0,0,0,21,18.735V6.5A1.8,1.8,0,0,0,19.167,4.748Zm0,13.986H6.333V9.119H19.167Z" transform="translate(-4.5 -3)"/></svg>