<svg xmlns="http://www.w3.org/2000/svg" version="1.1" width="15.201" height="17.372" viewBox="0 0 15.201 17.372"><defs><style>.a{fill:#b4b4b4;}</style></defs><path class="a" d="M14.794,16.287h-.679V.814A.814.814,0,0,0,13.3,0H1.9a.814.814,0,0,0-.814.814V16.287H.407A.407.407,0,0,0,0,16.694v.679H15.2v-.679A.407.407,0,0,0,14.794,16.287ZM4.343,2.579a.407.407,0,0,1,.407-.407H6.107a.407.407,0,0,1,.407.407V3.936a.407.407,0,0,1-.407.407H4.75a.407.407,0,0,1-.407-.407Zm0,3.257a.407.407,0,0,1,.407-.407H6.107a.407.407,0,0,1,.407.407V7.193a.407.407,0,0,1-.407.407H4.75a.407.407,0,0,1-.407-.407Zm1.764,5.022H4.75a.407.407,0,0,1-.407-.407V9.093a.407.407,0,0,1,.407-.407H6.107a.407.407,0,0,1,.407.407v1.357A.407.407,0,0,1,6.107,10.858Zm2.579,5.429H6.515v-2.85a.407.407,0,0,1,.407-.407H8.279a.407.407,0,0,1,.407.407Zm2.172-5.836a.407.407,0,0,1-.407.407H9.093a.407.407,0,0,1-.407-.407V9.093a.407.407,0,0,1,.407-.407h1.357a.407.407,0,0,1,.407.407Zm0-3.257a.407.407,0,0,1-.407.407H9.093a.407.407,0,0,1-.407-.407V5.836a.407.407,0,0,1,.407-.407h1.357a.407.407,0,0,1,.407.407Zm0-3.257a.407.407,0,0,1-.407.407H9.093a.407.407,0,0,1-.407-.407V2.579a.407.407,0,0,1,.407-.407h1.357a.407.407,0,0,1,.407.407Z"/></svg>