<svg xmlns="http://www.w3.org/2000/svg" version="1.1" width="15.843" height="10.968" viewBox="0 0 15.843 10.968"><defs><style>.a{fill:#b4b4b4;}</style></defs><g transform="translate(-3.375 -7.875)"><path class="a" d="M19.088,10.337l-4.1,4.174a.074.074,0,0,0,0,.107l2.868,3.054a.494.494,0,0,1,0,.7.5.5,0,0,1-.7,0L14.3,15.33a.078.078,0,0,0-.11,0l-.7.708a3.066,3.066,0,0,1-2.186.922,3.128,3.128,0,0,1-2.232-.948l-.67-.682a.078.078,0,0,0-.11,0L5.439,18.373a.5.5,0,0,1-.7,0,.494.494,0,0,1,0-.7l2.868-3.054a.081.081,0,0,0,0-.107L3.5,10.337a.075.075,0,0,0-.129.053v8.352a1.222,1.222,0,0,0,1.219,1.219H18a1.222,1.222,0,0,0,1.219-1.219V10.391A.076.076,0,0,0,19.088,10.337Z" transform="translate(0 -1.118)"/><path class="a" d="M11.686,14.848a2.07,2.07,0,0,0,1.489-.625l5.975-6.082a1.2,1.2,0,0,0-.754-.267H4.98a1.189,1.189,0,0,0-.754.267L10.2,14.224A2.071,2.071,0,0,0,11.686,14.848Z" transform="translate(-0.39)"/></g></svg>