<svg xmlns="http://www.w3.org/2000/svg" version="1.1" width="17.774" height="12.447" viewBox="0 0 17.774 12.447"><defs><style>.a{fill:#b4b4b4;}</style></defs><g transform="translate(-71.25 -307.796)"><path class="a" d="M14.914,12.062V13.58h1.841v1.841H14.914v1.841h-1.87V15.421H11.2V13.58h1.841V12.057a3.667,3.667,0,1,1,1.87.006Zm-.94-5.405A1.841,1.841,0,1,0,15.815,8.5,1.841,1.841,0,0,0,13.974,6.657Z" transform="translate(60.958 302.981)"/><path class="a" d="M12.861,7.716h4.2l-.009,4.253-1.442-1.441-1.359,1.359a3.7,3.7,0,1,1-1.289-1.329L14.312,9.2l-1.451-1.48ZM9.208,13.7a1.843,1.843,0,1,0,1.843-1.843A1.843,1.843,0,0,0,9.208,13.7Z" transform="translate(71.957 301.467)"/></g></svg>