<svg xmlns="http://www.w3.org/2000/svg" version="1.1" width="116" height="78.224" viewBox="0 0 116 78.224"><defs><style>.a{fill:#007af5;}</style></defs><g transform="translate(0.01 0.036)"><g transform="translate(-0.01 -0.036)"><path class="a" d="M108.228,105.4c.8.859,1.562,1.7,2.348,2.509a3.165,3.165,0,0,1,.179,4.576,3.128,3.128,0,0,1-4.576-.113q-4.108-3.924-8.2-7.878a3.084,3.084,0,0,1-.02-4.652q3.746-3.868,7.506-7.717c1.486-1.523,3.427-1.653,4.754-.343a3.154,3.154,0,0,1-.23,4.652c-.859.862-1.846,1.6-2.659,2.5,2.157.355,6.2-.864,8.473-2.054C123.862,92.67,128.183,85.869,129.454,77a23.648,23.648,0,0,0-.8-9.643c-1.753-6.5-5.773-11.09-11.33-14.518a3.646,3.646,0,0,1-2.064-2.553,3.028,3.028,0,0,1,1.315-3.082,2.987,2.987,0,0,1,3.347-.122,30.02,30.02,0,0,1,8.527,7.227,29.273,29.273,0,0,1,4.715,7.942,1.5,1.5,0,0,0,1.682,1.116c14.64-.034,29.281.093,43.918-.083,5.589-.069,10.686,4.9,10.4,10.439-.213,4.231-.034,8.481-.044,12.731,0,5.141-4.549,9.852-9.44,9.825s-9.389-4.683-9.347-9.754c0-1.055-.294-1.378-1.276-1.224a2.162,2.162,0,0,1-.734,0c-.994-.171-1.195.269-1.19,1.2a9.96,9.96,0,0,1-8.113,9.626c-5.229.774-10.566-3.841-10.62-9.318-.012-1.315-.382-1.623-1.608-1.533-1.5.11-3.016.049-4.524.02a3.14,3.14,0,1,1-.024-6.275q4.588-.051,9.176,0a3.117,3.117,0,0,1,3.219,3.256c.024,1.591-.017,3.183.015,4.772.039,1.959.994,2.9,2.96,2.938,2.137.049,3.141-.734,3.266-2.744.1-1.584.022-3.183.044-4.769a3.157,3.157,0,0,1,3.5-3.464q4.282-.017,8.569,0c2.436,0,3.773,1.525,3.65,4a43.229,43.229,0,0,0,0,4.407c.093,1.8,1.124,2.6,3.151,2.58,1.915-.022,2.979-.872,3-2.622q.069-7.589,0-15.179a2.369,2.369,0,0,0-2.561-2.519c-1.344-.056-2.693-.027-4.037-.027q-19.83,0-39.637-.015c-.881,0-1.195.049-1.06,1.146a30.822,30.822,0,0,1-20.7,32.965,42.311,42.311,0,0,1-6.571,1.653Z" transform="translate(-73.179 -35.202)"/><path class="a" d="M27.99,14.222A24.565,24.565,0,0,0,6.828,33.891C4.624,44.954,8.818,54.6,18.476,60.52c1.263.776,2.245,1.665,2.186,3.249a3.125,3.125,0,0,1-4.838,2.487,28.375,28.375,0,0,1-9.374-8.444C-.306,48.085-2.118,37.583,2.712,26.6,7.2,16.376,15.445,10.5,26.323,8.255c.433-.091.872-.164,1.454-.274-.827-.825-1.562-1.567-2.3-2.3-1.545-1.52-1.692-3.393-.367-4.752s3.134-1.278,4.666.181q4.076,3.878,8.121,7.79a3.115,3.115,0,0,1,.1,4.571q-3.863,4.01-7.761,7.984a3.127,3.127,0,0,1-4.571.164,3.091,3.091,0,0,1,.049-4.485c.825-.9,1.667-1.782,2.5-2.673l.174-.228Z" transform="translate(0.01 0.036)"/><path class="a" d="M70.54,116.2c.027-7.345,6.855-14.138,14.158-14.067s14.036,6.838,14.038,14.092c0,7.32-6.811,14.138-14.126,14.131S70.513,123.54,70.54,116.2Zm21.892,0c0-4.735-3.058-7.793-7.783-7.8-4.772,0-7.891,3.107-7.876,7.864.015,4.7,3.107,7.79,7.817,7.8,4.791.022,7.851-3.043,7.851-7.849Z" transform="translate(-53.268 -77.116)"/></g></g></svg>